#!OML:ASF F:\VICON\USERDATA\INSTALL\rory3\rory3.ASF
:FULLY-SPECIFIED
:DEGREES
47
root 0.903579 17.6711 -21.6571 -2.15698 1.36442 0.219253
lowerback 11.6824 -1.74789 -1.92126
upperback -0.265761 -2.42205 2.44949
thorax -6.6549 -1.07778 4.09005
lowerneck -17.5301 -2.06423 -2.14186
upperneck 23.1354 -1.89818 -1.50773
head 10.3074 -1.25046 -0.441018
rclavicle 1.99779e-014 0
rhumerus -40.6839 -35.1546 -63.4935
rradius 18.1021
rwrist 14.3244
rhand -20.5379 21.0567
rfingers 7.12502
rthumb 5.8205 -8.84337
lclavicle 1.99779e-014 0
lhumerus -24.4178 -3.08833 80.6031
lradius 35.3692
lwrist 8.50976
lhand -32.7186 24.4308
lfingers 7.12502
lthumb -5.94251 54.3275
rfemur -29.2575 5.67789 20.6851
rtibia 30.1444
rfoot -0.585801 -5.23745
rtoes 4.16899
lfemur 12.9754 -4.30654 -24.0458
ltibia 29.3168
lfoot -11.2893 -7.84961
ltoes -15.2791
48
root 0.887304 17.6925 -21.4494 -2.26545 1.117 -0.0874148
lowerback 11.7984 -2.33529 -2.48533
upperback -1.22366 -3.21709 3.34658
thorax -7.6001 -1.38798 5.55352
lowerneck -13.822 -1.36662 -3.44901
upperneck 22.2306 -0.696644 -1.68917
head 9.29543 -0.81039 -0.0866634
rclavicle -2.72956e-014 -1.11319e-014
rhumerus -41.2393 -31.6745 -63.0802
rradius 17.9179
rwrist 13.4632
rhand -20.4727 20.7569
rfingers 7.12502
rthumb 5.88349 -9.14137
lclavicle -2.72956e-014 -1.11319e-014
lhumerus -27.6197 -0.121838 80.9647
lradius 35.3255
lwrist 7.70807
lhand -33.1332 25.2609
lfingers 7.12502
lthumb -6.34278 55.146
rfemur -28.7994 5.40111 21.3773
rtibia 30.8165
rfoot -0.761339 -5.05648
rtoes 6.30005
lfemur 12.3919 -3.9582 -23.4867
ltibia 31.4803
lfoot -9.42693 -8.30945
ltoes -17.5736
49
root 0.864589 17.718 -21.247 -2.36905 0.868577 -0.407032
lowerback 11.5111 -1.87624 -1.5005
upperback -0.509688 -2.50621 2.83904
thorax -6.81186 -1.12048 4.28073
lowerneck -16.2451 -1.85553 -2.76476
upperneck 22.8948 -1.51687 -1.36136
head 9.98533 -1.1091 -0.216821
rclavicle -1.31198e-014 3.81667e-014
rhumerus -41.0206 -34.2574 -63.2187
rradius 18.0236
rwrist 13.8636
rhand -21.7475 19.5184
rfingers 7.12502
rthumb 4.65258 -10.4105
lclavicle -1.31198e-014 3.81667e-014
lhumerus -25.9613 -1.42351 80.8814
lradius 34.3969
lwrist 7.50643
lhand -32.8885 24.5856
lfingers 7.12502
lthumb -6.10656 54.4776
rfemur -28.3158 5.35068 22.0368
rtibia 31.4135
rfoot -1.07603 -4.37466
rtoes 6.47006
lfemur 11.6421 -3.47374 -22.8101
ltibia 33.6608
lfoot -6.56175 -10.5147
ltoes -16.5313
50
root 0.840613 17.7492 -21.0423 -2.42968 0.802729 -0.413897
lowerback 11.3047 -1.70776 -1.23773
upperback -0.203978 -2.26852 2.5535
thorax -6.41046 -1.02973 3.76777
lowerneck -17.2901 -2.01951 -2.36509
upperneck 23.2276 -1.83891 -1.27587
head 10.3002 -1.21581 -0.311465
rclavicle 3.08365e-014 -2.46493e-014
rhumerus -40.8926 -35.0075 -63.6299
rradius 18.2345
rwrist 13.9873
rhand -23.0465 18.194
rfingers 7.12502
rthumb 3.39817 -11.7586
lclavicle 3.08365e-014 -2.46493e-014
lhumerus -25.269 -1.52102 80.7887
lradius 33.4991
lwrist 7.11097
lhand -32.2757 23.0061
lfingers 7.12502
lthumb -5.51494 52.9144
rfemur -27.8039 5.2275 22.3018
rtibia 31.855
rfoot -1.26602 -3.6693
rtoes 5.32819
lfemur 10.6811 -3.09518 -22.4394
ltibia 35.9322
lfoot -3.81355 -11.556
ltoes -18.4156
51
root 0.817003 17.7829 -20.8346 -2.63235 0.831559 -0.392881
lowerback 11.4545 -1.74304 -1.32159
upperback -0.395796 -2.32518 2.54697
thorax -6.69193 -1.04707 3.83147
lowerneck -16.6275 -2.03011 -2.41234
upperneck 23.253 -1.86448 -1.27481
head 10.1841 -1.23175 -0.299286
rclavicle -7.66315e-014 2.14687e-014
rhumerus -41.0581 -34.1145 -63.9965
rradius 18.3401
rwrist 13.3058
rhand -22.3405 18.0703
rfingers 7.12502
rthumb 4.07995 -11.8704
lclavicle -7.66315e-014 2.14687e-014
lhumerus -25.9795 -0.955947 80.8794
lradius 32.9215
lwrist 6.68182
lhand -32.3187 23.3633
lfingers 7.12502
lthumb -5.55645 53.2705
rfemur -26.9577 5.20465 22.4931
rtibia 32.1347
rfoot -1.51969 -3.69093
rtoes 5.26705
lfemur 9.79768 -2.82315 -22.124
ltibia 38.2308
lfoot -0.473601 -12.8034
ltoes -17.08
